<?xml version="1.0" encoding="UTF-8"?>
<svg width="56px" height="56px" viewBox="0 0 56 56" version="1.1" xmlns="http://www.w3.org/2000/svg" xmlns:xlink="http://www.w3.org/1999/xlink">
    <title>kaleida</title>
    <defs>
        <path d="M0,0 L56,0 L56,56 L0,56 L0,0 Z" id="path-1"></path>
    </defs>
    <g id="kaleida" stroke="none" fill="none" xlink:href="#path-1" fill-rule="nonzero">
        <path d="M29.5101945,4 L45.523814,31.4285602 L49.4938598,38.2707284 L45.523814,45.1128965 L37.5837224,45.1128965 L33.6136765,52 L27.616,51.999 L25.6435088,52 L21.715,45.112 L21.673463,45.1128965 L21.694,45.075 L9.89,24.375 L6,17.5540093 L9.91836575,10.7621753 L17.7847818,10.7325166 L21.6437784,4 L29.5101945,4 Z M29.5834785,45.1128965 L23.686,45.112 L26.631,50.272 L29.5834785,45.1128965 Z M17.559,24.375 L11.852,24.375 L22.69,43.366 L25.544,38.466 L25.4880926,38.3673167 L17.6143275,24.4720902 L17.559,24.375 Z M25.359,24.375 L18.01,24.375 L25.8290011,38.17414 L25.883,38.27 L33.387,38.27 L25.359,24.375 Z M44.542,33.114 L41.5421553,38.2707284 L47.5346769,38.2707284 L44.542,33.114 Z M29.397,17.751 L25.701,24.184 L33.726,38.074 L37.435,31.633 L37.3732915,31.5267225 L29.397,17.751 Z M27.8105548,4.97959144 L22.2113938,4.97959144 L22.0420335,5.27506198 L18.6346607,11.2196565 L18.3536276,11.7097764 L17.7884751,11.7121011 L10.8232495,11.7383847 L10.4852686,11.7396601 L10.3163667,12.032414 L8.20456349,15.6927554 L7.69601726,16.5742072 L15.4632451,16.5742316 L14.628386,18.0391464 L12.0753902,22.5170466 L11.5743214,23.3959105 L17.2133052,23.3959105 L17.3820897,23.0975663 L20.7911573,17.0716851 L21.0723857,16.5742316 L28.9443243,16.5742236 L29.1139591,16.2801942 L31.2238031,12.6231834 L31.7323562,11.7417039 L23.8920417,11.7417111 L24.7442506,10.2710432 L27.2991932,5.86203663 L27.8105548,4.97959144 Z M13.7773623,17.5540093 L7.95918287,17.5540093 L10.869,22.654 L13.7773623,17.5540093 Z" id="+-copy-2" fill="#101214" transform="translate(27.7469, 28) scale(-1, 1) translate(-27.7469, -28)"></path>
    </g>
</svg>